<svg width="36" height="25" viewBox="0 0 36 25" fill="none" xmlns="http://www.w3.org/2000/svg">
<rect x="0.5" y="1" width="35" height="23" rx="3.5" fill="white"/>
<rect x="0.5" y="1" width="35" height="23" rx="3.5" stroke="#D9DBDF"/>
<path d="M15.8728 13.1025H3.74805V17.3419H15.8728V13.1025Z" fill="#84B740"/>
<path d="M15.8728 7.31738H3.74805V11.5605H15.8728V7.31738Z" fill="#259BD6"/>
<path d="M27.9971 16.4797L27.9431 16.4911C27.7559 16.5289 27.6875 16.544 27.5507 16.544C27.2339 16.544 26.8595 16.374 26.8595 15.5729C26.8595 15.1611 26.9243 14.6132 27.5147 14.6132H27.5183C27.6191 14.6208 27.7343 14.6321 27.9503 14.7001L27.9971 14.7152V16.4797ZM28.0943 12.486L27.9971 12.5049V13.986L27.9107 13.9595L27.8855 13.952C27.7883 13.9218 27.5651 13.8538 27.3491 13.8538C26.1683 13.8538 25.9199 14.7908 25.9199 15.5767C25.9199 16.6536 26.4959 17.2732 27.5003 17.2732C27.9251 17.2732 28.2383 17.2279 28.5551 17.1183C28.8467 17.0201 28.9511 16.8803 28.9511 16.5818V12.3311C28.6703 12.384 28.3787 12.4369 28.0943 12.486Z" fill="#222222"/>
<path d="M31.5076 16.5063L31.4572 16.5214L31.2772 16.5705C31.108 16.6159 30.9568 16.6423 30.8416 16.6423C30.5644 16.6423 30.3988 16.4987 30.3988 16.2531C30.3988 16.0944 30.4672 15.8262 30.9208 15.8262H31.5076V16.5063ZM31.0936 13.835C30.73 13.835 30.3556 13.903 29.8912 14.0541L29.5888 14.1486L29.6896 14.8665L29.9848 14.7645C30.2944 14.6587 30.6796 14.5906 30.9676 14.5906C31.0972 14.5906 31.4932 14.5906 31.4932 15.0403V15.2368H30.9424C29.938 15.2368 29.4736 15.573 29.4736 16.2947C29.4736 16.9106 29.902 17.2809 30.622 17.2809C30.8452 17.2809 31.1548 17.2355 31.4212 17.1675L31.4356 17.1637L31.45 17.1675L31.54 17.1826C31.8208 17.2355 32.1124 17.2884 32.3968 17.3451V14.9874C32.3968 14.2241 31.9576 13.835 31.0936 13.835Z" fill="#222222"/>
<path d="M24.5125 16.5063L24.4621 16.5214L24.2821 16.5705C24.1129 16.6159 23.9653 16.6423 23.8465 16.6423C23.5693 16.6423 23.4037 16.4987 23.4037 16.2531C23.4037 16.0944 23.4721 15.8262 23.9221 15.8262H24.5089V16.5063H24.5125ZM24.1021 13.835C23.7349 13.835 23.3641 13.903 22.8997 14.0541L22.5973 14.1486L22.6981 14.8665L22.9933 14.7645C23.3029 14.6587 23.6881 14.5906 23.9761 14.5906C24.1057 14.5906 24.5017 14.5906 24.5017 15.0403V15.2368H23.9509C22.9465 15.2368 22.4785 15.573 22.4785 16.2947C22.4785 16.9106 22.9069 17.2809 23.6305 17.2809C23.8537 17.2809 24.1633 17.2355 24.4297 17.1675L24.4441 17.1637L24.4585 17.1675L24.5449 17.1826C24.8293 17.2355 25.1173 17.2884 25.4017 17.3489V14.9912C25.4053 14.2204 24.9661 13.835 24.1021 13.835Z" fill="#222222"/>
<path d="M20.7225 13.8426C20.2653 13.8426 19.8873 14.0013 19.7469 14.0693L19.7109 14.0882L19.6785 14.0618C19.4841 13.9144 19.1997 13.8389 18.8037 13.8389C18.4545 13.8389 18.1269 13.8918 17.7705 14.0013C17.4645 14.0996 17.3457 14.2545 17.3457 14.5454V17.2394H18.3033V14.7495L18.3501 14.7343C18.5445 14.6663 18.6597 14.655 18.7713 14.655C19.0485 14.655 19.1889 14.8099 19.1889 15.1122V17.2432H20.1321V15.0706C20.1321 14.9422 20.1069 14.8666 20.1033 14.8515L20.0709 14.7872L20.1357 14.757C20.2797 14.689 20.4381 14.655 20.6037 14.655C20.7945 14.655 21.0213 14.7343 21.0213 15.1122V17.2432H21.9609V15.014C21.9609 14.2243 21.5577 13.8426 20.7225 13.8426Z" fill="#222222"/>
<path d="M30.8018 10.0832C30.6614 10.0832 30.4274 10.0681 30.2438 10.0303L30.1898 10.0189V8.56426C30.1898 8.44335 30.1682 8.36778 30.1646 8.35645L30.1358 8.29599L30.197 8.26954C30.2114 8.26199 30.2258 8.25821 30.2438 8.25065L30.2546 8.24309C30.2762 8.23554 30.2978 8.22798 30.3194 8.22042C30.3302 8.21665 30.3374 8.21287 30.3446 8.21287C30.557 8.15241 30.7514 8.15997 30.8378 8.15241H30.8414C31.4282 8.15241 31.4966 8.70028 31.4966 9.11213C31.493 9.91315 31.115 10.0832 30.8018 10.0832ZM30.7982 7.31738C30.791 7.31738 30.7802 7.31738 30.773 7.31738C30.2222 7.31738 29.657 7.47608 29.4554 7.78591C29.3474 7.93704 29.2862 8.12596 29.2826 8.34889V9.84892C29.2826 9.97738 29.2574 10.0265 29.2538 10.0378L29.2214 10.1021H27.4826V9.05923H27.479C27.4574 7.95971 26.8382 7.35517 25.9418 7.35517H25.8374H25.067C25.031 7.62343 25.0022 7.81235 24.9662 8.08062H25.8374C26.2946 8.08062 26.5358 8.48869 26.5358 9.11591V10.1663L26.4746 10.1323C26.4638 10.1285 26.3882 10.1021 26.2694 10.1021H24.7646C24.7358 10.3023 24.6998 10.563 24.6602 10.8237H29.2862C29.4446 10.7897 29.6282 10.7595 29.7866 10.7331C30.0206 10.854 30.4562 10.9182 30.755 10.9182C31.7594 10.9182 32.411 10.2116 32.411 9.12346C32.4074 8.04662 31.7774 7.34005 30.7982 7.31738Z" fill="#222222"/>
<path d="M22.6881 11.2662H22.7313C23.7357 11.2662 24.2037 10.9186 24.2037 10.0609C24.2037 9.44506 23.7753 8.95386 23.0553 8.95386H22.1301C21.8529 8.95386 21.6873 8.78761 21.6873 8.50801C21.6873 8.31909 21.7557 8.08483 22.2093 8.08483H24.2325C24.2757 7.80901 24.2973 7.6352 24.3369 7.35938H22.2345C21.2553 7.35938 20.7621 7.79011 20.7621 8.50801C20.7621 9.21835 21.1905 9.58864 21.9105 9.58864H22.8357C23.1129 9.58864 23.2785 9.81912 23.2785 10.0609C23.2785 10.2196 23.2101 10.5484 22.7601 10.5484H22.6053L19.6425 10.5408H19.1025C18.6453 10.5408 18.3249 10.2688 18.3249 9.63776V9.20324C18.3249 8.5458 18.5733 8.13773 19.1025 8.13773H19.9809C20.0205 7.85813 20.0457 7.68054 20.0817 7.41605H18.9873H18.8829C17.9865 7.41605 17.3673 8.04705 17.3457 9.14656V9.18812V9.63776C17.3673 10.7373 17.9865 11.2625 18.8829 11.2625H18.9873H19.7577L21.3633 11.2662H22.3209H22.6881Z" fill="#222222"/>
</svg>
