<svg width="36" height="25" viewBox="0 0 36 25" fill="none" xmlns="http://www.w3.org/2000/svg">
<rect x="0.5" y="1" width="35" height="23" rx="3.5" fill="white" stroke="#D9DBDF"/>
<path fill-rule="evenodd" clip-rule="evenodd" d="M18.257 17.6569C17.0314 18.6852 15.4415 19.306 13.7043 19.306C9.82794 19.306 6.68555 16.2154 6.68555 12.403C6.68555 8.59057 9.82794 5.5 13.7043 5.5C15.4415 5.5 17.0314 6.12075 18.257 7.14903C19.4826 6.12075 21.0724 5.5 22.8097 5.5C26.686 5.5 29.8284 8.59057 29.8284 12.403C29.8284 16.2154 26.686 19.306 22.8097 19.306C21.0724 19.306 19.4826 18.6852 18.257 17.6569Z" fill="#ED0006"/>
<path fill-rule="evenodd" clip-rule="evenodd" d="M18.2568 17.6568C19.7659 16.3907 20.7228 14.5067 20.7228 12.403C20.7228 10.2992 19.7659 8.41527 18.2568 7.14913C19.4825 6.12079 21.0723 5.5 22.8097 5.5C26.686 5.5 29.8284 8.59057 29.8284 12.403C29.8284 16.2154 26.686 19.306 22.8097 19.306C21.0723 19.306 19.4825 18.6852 18.2568 17.6568Z" fill="#F9A000"/>
<path fill-rule="evenodd" clip-rule="evenodd" d="M18.257 17.6573C19.7661 16.3911 20.723 14.5071 20.723 12.4033C20.723 10.2995 19.7661 8.41555 18.257 7.14941C16.7479 8.41555 15.791 10.2995 15.791 12.4033C15.791 14.5071 16.7479 16.3911 18.257 17.6573Z" fill="#FF5E00"/>
</svg>
