<svg width="36" height="25" viewBox="0 0 36 25" fill="none" xmlns="http://www.w3.org/2000/svg">
<rect x="0.5" y="1" width="35" height="23" rx="3.5" fill="white" stroke="#D9DBDF"/>
<path d="M15.4017 16.5833H13.3662L14.6394 8.92969H16.6748L15.4017 16.5833Z" fill="#00579F"/>
<path d="M22.7798 9.11588C22.3783 8.96102 21.7415 8.79004 20.9541 8.79004C18.944 8.79004 17.5285 9.83218 17.5198 11.3221C17.5031 12.4214 18.5333 13.032 19.3037 13.3985C20.0913 13.773 20.359 14.0175 20.359 14.3514C20.3509 14.8641 19.7226 15.1004 19.1366 15.1004C18.3239 15.1004 17.8884 14.9786 17.2267 14.6933L16.9587 14.571L16.6738 16.2891C17.1512 16.5006 18.0308 16.6882 18.944 16.6964C21.0798 16.6964 22.4703 15.6704 22.4868 14.0827C22.4949 13.2114 21.9509 12.5438 20.7782 11.9983C20.0662 11.6481 19.6302 11.4119 19.6302 11.0536C19.6386 10.7279 19.999 10.3943 20.8026 10.3943C21.4644 10.3779 21.9506 10.5326 22.3189 10.6873L22.503 10.7686L22.7798 9.11588Z" fill="#00579F"/>
<path d="M25.4872 13.8719C25.6548 13.4322 26.2999 11.7305 26.2999 11.7305C26.2914 11.7468 26.4672 11.2827 26.5677 10.9977L26.7099 11.6572C26.7099 11.6572 27.0954 13.4892 27.1791 13.8719C26.861 13.8719 25.8892 13.8719 25.4872 13.8719ZM27.9998 8.92969H26.4253C25.9398 8.92969 25.5709 9.06799 25.3614 9.56471L22.3379 16.5832H24.4737C24.4737 16.5832 24.8253 15.6385 24.9009 15.4351C25.1352 15.4351 27.2129 15.4351 27.5144 15.4351C27.5728 15.7038 27.7572 16.5832 27.7572 16.5832H29.6419L27.9998 8.92969Z" fill="#00579F"/>
<path d="M11.6662 8.92969L9.6727 14.1487L9.45487 13.0902C9.08632 11.8689 7.93048 10.5419 6.64062 9.88211L8.46655 16.5752H10.6191L13.8185 8.92969H11.6662Z" fill="#00579F"/>
<path d="M7.82213 8.92969H4.54718L4.51367 9.08433C7.06834 9.71946 8.76025 11.2504 9.45538 13.0906L8.74344 9.57304C8.62624 9.08422 8.26604 8.94581 7.82213 8.92969Z" fill="#FAA61A"/>
</svg>
