<svg xmlns="http://www.w3.org/2000/svg" viewBox="0 0 256 256"><defs><style>.cls-1{fill:#fff;}.cls-2{fill:#0f1933;}.cls-3{fill:#46b8b0;}</style></defs><g id="Layer_2" data-name="Layer 2"><g id="Layer_1-2" data-name="Layer 1"><rect class="cls-1" width="256" height="256"/><path class="cls-2" d="M32.89,148.13v4.49h6.75v23h5v-23h6.76v-4.49Zm27.24,23.4a5.93,5.93,0,0,0,2.25-.39,5.79,5.79,0,0,0,1.92-1.23,5.64,5.64,0,0,0,0-8.16,5.82,5.82,0,0,0-4.17-1.61,5.7,5.7,0,1,0,0,11.39Zm-.84-15.89c3.5,0,6.24,1.78,7.29,4l.28-3.64h4.7v19.6h-4.7L66.58,172c-1,2.25-3.79,4-7.29,4a10.19,10.19,0,0,1,0-20.38Zm24.48,15.89a6,6,0,0,0,2.25-.39,5.85,5.85,0,0,0,1.91-1.23,5.64,5.64,0,0,0,0-8.16,5.84,5.84,0,1,0-4.16,9.78Zm-.85-15.89c3.5,0,6.24,1.78,7.29,4l.28-3.64h4.7v19.6h-4.7L90.21,172c-1,2.25-3.79,4-7.29,4a10.19,10.19,0,0,1,0-20.38Zm21.7,20.3h-.52a3,3,0,0,0-2,2.41c0,1.66,1.73,2.63,4.47,2.63s4.47-.81,4.47-2.44c0-1.94-2.42-2.6-6.44-2.6ZM110,163c0-2-1.82-3.41-3.92-3.41s-4,1.36-4,3.41,1.85,3.37,4,3.37S110,165,110,163Zm5.91-2.75L114,160a6.76,6.76,0,0,1,.73,3c0,4.3-3.75,7.38-8.63,7.38a9.87,9.87,0,0,1-2.86-.39,1.14,1.14,0,0,0-.56.89c0,.93,1.36,1.13,3.42,1.13,6.48,0,9.66,2.83,9.66,6.47,0,4.22-4.47,6.47-9.14,6.47s-9.14-2.25-9.14-6.47a4.42,4.42,0,0,1,.59-2.33,4.48,4.48,0,0,1,1.7-1.7A3.42,3.42,0,0,1,98,171.74a3.7,3.7,0,0,1,2.41-3.06,6.88,6.88,0,0,1-2.16-2.48,6.79,6.79,0,0,1-.76-3.19c0-4.34,3.74-7.37,8.62-7.37a10.84,10.84,0,0,1,4.21.85l5.6-.46v4.23Zm5.52,3.75h10.45c-.16-2.17-2.13-4.14-5.23-4.14s-5.1,1.89-5.24,4.14Zm15.4,3.29h-15.4c.12,2.41,2,4.5,5.6,4.5a5.64,5.64,0,0,0,5-2.68l4.34.47c-.6,2.67-3.78,6.43-9.41,6.43a10.09,10.09,0,0,1-10.5-10.3,9.87,9.87,0,0,1,10.19-10.09c6.27,0,10.2,4.8,10.2,10.42Zm13.51-10.81-.73,4.15a4.4,4.4,0,0,0-2-.5c-2.66,0-4.11,2.63-4.11,6.78v8.71h-4.94V156h4.66l.21,2.13a6,6,0,0,1,4.47-2.52,3.55,3.55,0,0,1,2.45.85m-1.54,17.09a2.51,2.51,0,0,1,.4-1.41,2.49,2.49,0,0,1,1.12-1,2.57,2.57,0,0,1,2.79.5,2.5,2.5,0,0,1-.35,3.88,2.55,2.55,0,0,1-1.42.43,2.52,2.52,0,0,1-1.78-.7,2.38,2.38,0,0,1-.75-1.74m17.67-13.44a5.7,5.7,0,1,0,0,11.39,7.55,7.55,0,0,0,2.81-.54,7,7,0,0,0,2.38-1.56V174a9.07,9.07,0,0,1-6,2,10.32,10.32,0,0,1-7.28-3,10.1,10.1,0,0,1,0-14.41,10.32,10.32,0,0,1,7.28-3,9.07,9.07,0,0,1,6,2v4.53a7.3,7.3,0,0,0-5.19-2.05m23.19,5.69a5.69,5.69,0,0,0-1.74-4.09,5.71,5.71,0,1,0-1.92,9.4,5.71,5.71,0,0,0,3.21-3.09A5.65,5.65,0,0,0,189.65,165.83Zm-16.87,0c0-5.62,4.55-10.19,11-10.19s10.86,4.57,10.86,10.19S190.09,176,183.73,176s-10.95-4.57-10.95-10.19m55.32-2.51v12.32h-4.95V165c0-2.86-1.25-4.8-3.63-4.8-2.94,0-4.7,3-4.83,7v8.45h-4.95V165c0-2.86-1.25-4.8-3.63-4.8-2.93,0-4.7,3-4.86,7v8.45H196.3V156H201l.25,2.75a9.47,9.47,0,0,1,6.8-3.14,6,6,0,0,1,6,3.83,10,10,0,0,1,7.48-3.83c4.35,0,6.67,3.18,6.67,7.67"/><path class="cls-3" d="M131.91,116.29a106.16,106.16,0,0,1-14.58,1.3l-1.66,18.87c0,.4-.07.75-.09.95a23.6,23.6,0,0,0,2.79-.16,24.61,24.61,0,0,0,8-2.06,27.29,27.29,0,0,0,8.2-5.84,26.73,26.73,0,0,0,5.49-8.39,24.73,24.73,0,0,0,1.71-6.66q-4.86,1.22-9.83,2"/><path class="cls-2" d="M170.4,92.21c-.25-3.52-2.87-8.14-13.92-10.14a64.61,64.61,0,0,0-11.37-.92,103.94,103.94,0,0,0-15.76,1.29,100,100,0,0,0-21.24,5.68l1.38-3.49a3,3,0,0,0-.61-3.33,3,3,0,0,0-1-.67,2.69,2.69,0,0,0-1-.18,3.31,3.31,0,0,0-1.82.61,3.23,3.23,0,0,0-1.16,1.52L99.51,93.77a3,3,0,0,0,.61,3.33,3,3,0,0,0,1,.67l10.44,3.86a2.67,2.67,0,0,0,1,.16,3.25,3.25,0,0,0,3-2.11,3,3,0,0,0-.61-3.33,3.07,3.07,0,0,0-1-.68l-3.06-1.13a91.21,91.21,0,0,1,19-5,95.37,95.37,0,0,1,14.61-1.22c12.23,0,18.69,3,18.83,5,0,.65-.58,1.64-1.86,2.79a4.58,4.58,0,0,1,3.06,2.53,4.5,4.5,0,0,1-.08,3.94c5.11-4,6.17-7.7,6-10.37"/><path class="cls-2" d="M161,97.84l-10.7-3.1a3.17,3.17,0,0,0-.76-.1,2.93,2.93,0,0,0-1.45.38A3.36,3.36,0,0,0,146,97.21a3,3,0,0,0,.13,2.33,3.08,3.08,0,0,0,1.77,1.55l3.25.93a89.08,89.08,0,0,1-20,5.34,95.26,95.26,0,0,1-14.61,1.22c-12.22,0-18.69-3-18.83-5-.06-.84,1-2.21,3.09-3.8a4.65,4.65,0,0,1-2.34-1.66,4.54,4.54,0,0,1-.33-4.9c-6.43,4.4-7.73,8.56-7.52,11.47.25,3.52,2.87,8.14,13.91,10.15a65.76,65.76,0,0,0,11.38.91,102.54,102.54,0,0,0,15.75-1.29,97.92,97.92,0,0,0,22.53-6.2l-1.08,3.47a3,3,0,0,0,.12,2.33,3.06,3.06,0,0,0,1.77,1.54,2.79,2.79,0,0,0,.76.11,3.16,3.16,0,0,0,1.45-.38,3.36,3.36,0,0,0,2.09-2.19l3.58-11.48a3,3,0,0,0-1.79-3.84l-.1,0"/><path class="cls-3" d="M144.38,84.69l.4-4.61a3.69,3.69,0,0,1,.05-.74,2.09,2.09,0,0,0,0-.56v-1a17.37,17.37,0,0,0-1.29-6c-2.67-6.54-9.42-10.56-16.43-10.57h-27a1.29,1.29,0,0,0-.83.34,1.22,1.22,0,0,0-.41.79L97,83.56a1,1,0,0,0,1,1.13h3.13l1.1-2.79a5.06,5.06,0,0,1,1.84-2.35,5.29,5.29,0,0,1,2.86-.93,4.61,4.61,0,0,1,4.21,2.72,5.08,5.08,0,0,1,.25,3.35h3a5.28,5.28,0,0,1,4,1.7,5.12,5.12,0,0,1,1.34,4.07l-.27,3.15-1.17,13.15a95.71,95.71,0,0,0,12.53-1.18A97.34,97.34,0,0,0,142.8,103l.47-5.31,1-11.87a1.26,1.26,0,0,1,1.19-1.13Z"/><path class="cls-3" d="M147.9,61.22a1.56,1.56,0,0,0-1.1.42,1.61,1.61,0,0,0-.52,1l-1.94,22h22.57a1.3,1.3,0,0,0,.84-.33,1.27,1.27,0,0,0,.41-.81L170,62.35a1,1,0,0,0-1-1.13Z"/></g></g></svg>